<svg xmlns="http://www.w3.org/2000/svg" viewBox="0 0 64 64" role="img" aria-label="FlareInspect">
  <title>FlareInspect</title>
  <!-- App-icon glyph: rounded-square fill in flare orange, mark in dark ink. -->
  <rect width="64" height="64" rx="14" fill="#f6821f"/>
  <g transform="translate(7,7) scale(0.78)" color="#1a0f00">
    <circle cx="32" cy="32" r="28" fill="none" stroke="currentColor" stroke-width="1.5" stroke-opacity="0.35"/>
    <g stroke="currentColor" stroke-width="1.5" stroke-linecap="round" stroke-opacity="0.5">
      <line x1="32" y1="2"  x2="32" y2="7"/>
      <line x1="32" y1="57" x2="32" y2="62"/>
      <line x1="2"  y1="32" x2="7"  y2="32"/>
      <line x1="57" y1="32" x2="62" y2="32"/>
    </g>
    <g fill="currentColor">
      <polygon points="32,10 34.2,21 32,23 29.8,21"/>
      <polygon points="47.6,16.4 41.6,25.9 39.5,25.4 40,23.3"/>
      <polygon points="54,32 43,34.2 41,32 43,29.8"/>
      <polygon points="47.6,47.6 40,38.5 40.5,36.4 42.6,36.9"/>
      <polygon points="32,54 29.8,43 32,41 34.2,43"/>
      <polygon points="16.4,47.6 23.5,40 25.6,40.5 25.1,42.6"/>
      <polygon points="10,32 21,29.8 23,32 21,34.2"/>
      <polygon points="16.4,16.4 25.4,23.5 24.9,25.6 22.8,25.1"/>
    </g>
    <circle cx="32" cy="32" r="8.5" fill="none" stroke="currentColor" stroke-width="2"/>
    <circle cx="32" cy="32" r="3.2" fill="currentColor"/>
  </g>
</svg>
